<?xml version="1.0" encoding="UTF-8" standalone="no"?>
<svg
   height="48"
   width="48"
   color="#fff"
   version="1.1"
   id="svg4"
   sodipodi:docname="ballot.svg"
   inkscape:version="1.2.1 (9c6d41e410, 2022-07-14)"
   xmlns:inkscape="http://www.inkscape.org/namespaces/inkscape"
   xmlns:sodipodi="http://sodipodi.sourceforge.net/DTD/sodipodi-0.dtd"
   xmlns="http://www.w3.org/2000/svg"
   xmlns:svg="http://www.w3.org/2000/svg"
   xmlns:rdf="http://www.w3.org/1999/02/22-rdf-syntax-ns#"
   xmlns:cc="http://creativecommons.org/ns#"
   xmlns:dc="http://purl.org/dc/elements/1.1/">
  <metadata
     id="metadata10">
    <rdf:RDF>
      <cc:Work
         rdf:about="">
        <dc:format>image/svg+xml</dc:format>
        <dc:type
           rdf:resource="http://purl.org/dc/dcmitype/StillImage" />
      </cc:Work>
    </rdf:RDF>
  </metadata>
  <defs
     id="defs8" />
  <sodipodi:namedview
     pagecolor="#ffffff"
     bordercolor="#666666"
     borderopacity="1"
     objecttolerance="10"
     gridtolerance="10"
     guidetolerance="10"
     inkscape:pageopacity="0"
     inkscape:pageshadow="2"
     inkscape:window-width="3840"
     inkscape:window-height="2081"
     id="namedview6"
     showgrid="false"
     inkscape:zoom="21"
     inkscape:cx="15.333333"
     inkscape:cy="24.071429"
     inkscape:window-x="-9"
     inkscape:window-y="-9"
     inkscape:window-maximized="1"
     inkscape:current-layer="svg4"
     inkscape:showpageshadow="2"
     inkscape:pagecheckerboard="0"
     inkscape:deskcolor="#d1d1d1" />
  <path
     d="M9 44q-1.2 0-2.1-.9Q6 42.2 6 41v-9.9l6.75-7.45 2.15 2.15L9 32.25h30l-5.55-6.3 2.15-2.15 6.4 7.3V41q0 1.2-.9 2.1-.9.9-2.1.9Zm0-3h30v-5.75H9V41Zm13.1-12.25-7.95-7.95q-.95-.95-.85-2.125.1-1.175 1-2.075L24.9 6q.85-.85 2.1-.875Q28.25 5.1 29.15 6l7.95 7.95q.85.85.875 2.025Q38 17.15 37 18.15l-10.6 10.6q-.85.85-2.1.9-1.25.05-2.2-.9ZM34.55 15.9l-7.5-7.5-10.4 10.4 7.5 7.5ZM9 41v-5.75V41Z"
     id="path2"
     style="fill:#f2f0f4;fill-opacity:1" />
</svg>
