<?xml version="1.0" encoding="UTF-8"?>
<svg width="772.76" height="343.17" version="1.1" viewBox="0 0 204.46 90.797" xmlns="http://www.w3.org/2000/svg" xmlns:cc="http://creativecommons.org/ns#" xmlns:dc="http://purl.org/dc/elements/1.1/" xmlns:rdf="http://www.w3.org/1999/02/22-rdf-syntax-ns#" xmlns:xlink="http://www.w3.org/1999/xlink">
 <defs>
  <linearGradient id="linearGradient1946" x1="354.6" x2="338.16" y1="199.07" y2="162.17" gradientUnits="userSpaceOnUse" xlink:href="#linearGradient1800"/>
  <linearGradient id="linearGradient1800">
   <stop style="stop-color:#b50000" offset="0"/>
   <stop style="stop-color:#ff7878" offset="1"/>
  </linearGradient>
  <linearGradient id="linearGradient1950" x1="1239.6" x2="1239.3" y1="857.49" y2="806.31" gradientUnits="userSpaceOnUse" xlink:href="#linearGradient1800"/>
  <linearGradient id="linearGradient1952" x1="323" x2="369.43" y1="196.25" y2="251.22" gradientUnits="userSpaceOnUse" xlink:href="#linearGradient1800"/>
 </defs>
 <metadata>
  <rdf:RDF>
   <cc:Work rdf:about="">
    <dc:format>image/svg+xml</dc:format>
    <dc:type rdf:resource="http://purl.org/dc/dcmitype/StillImage"/>
    <dc:title/>
   </cc:Work>
  </rdf:RDF>
 </metadata>
 <g transform="translate(-2.0922 -85.381)">
  <g transform="translate(-223.35 -61.339)">
   <path d="m327.67 149.37-9.0705 27.915h-90.513l12.123 37.31h7.089v20.279h160.74v-20.279h7.089l12.123-37.31h-90.514z" style="fill:#ffffff"/>
   <g transform="translate(26.393 4.3718)">
    <path d="m338.08 175.8-20.871 15.481 5.2966 16.301h62.99l10.347-31.845z" style="fill:#050505;paint-order:markers stroke fill;stroke-linecap:square;stroke-width:1.665"/>
    <path d="m338.9 177.39-19.611 14.569 4.6403 14.033h59.897l9.2931-28.602z" style="fill:#610000;paint-order:markers stroke fill;stroke-linecap:square;stroke-width:1.4955"/>
    <path d="m319.29 191.96h69.097l4.7337-14.569h-54.22z" style="fill:url(#linearGradient1946)"/>
   </g>
   <g transform="matrix(-1 0 0 1 628.95 4.4344)">
    <path d="m338.08 175.8-20.871 15.481 5.2966 16.301h62.99l10.347-31.845z" style="fill:#050505;paint-order:markers stroke fill;stroke-linecap:square;stroke-width:1.665"/>
    <path d="m338.9 177.39-19.611 14.569 4.6403 14.033h59.897l9.2931-28.602z" style="fill:#610000;paint-order:markers stroke fill;stroke-linecap:square;stroke-width:1.4955"/>
    <path d="m319.29 191.96h69.097l4.7337-14.569h-54.22z" style="fill:url(#linearGradient1946)"/>
   </g>
   <path d="m350.56 217.08 4.8936 15.061h49.87v-15.061zm11.212 2.4316 1.2158 3.7445h3.9483l-3.1947 2.3226 1.2158 3.7469-3.1852-2.3154-3.1852 2.3154 1.2158-3.7469-3.1947-2.3226h3.9483zm17.85 0 1.2158 3.7445h3.9483l-3.1947 2.3226 1.2158 3.7469-3.1852-2.3154-3.1852 2.3154 1.2158-3.7469-3.1947-2.3226h3.9483zm17.85 0 1.2134 3.7445h3.9507l-3.197 2.3226 1.2158 3.7469-3.1852-2.3154-3.1828 2.3154 1.2158-3.7445-3.1971-2.3249h3.9507z" style="fill:#050505;paint-order:fill markers stroke"/>
   <path d="m304.77 217.08-4.8936 15.061h-49.87v-15.061zm-11.212 2.4316-1.2158 3.7445h-3.9483l3.1947 2.3226-1.2158 3.7469 3.1852-2.3154 3.1852 2.3154-1.2158-3.7469 3.1947-2.3226h-3.9483zm-17.85 0-1.2158 3.7445h-3.9483l3.1947 2.3226-1.2158 3.7469 3.1852-2.3154 3.1852 2.3154-1.2158-3.7469 3.1947-2.3226h-3.9483zm-17.85 0-1.2134 3.7445h-3.9507l3.197 2.3226-1.2158 3.7469 3.1852-2.3154 3.1828 2.3154-1.2158-3.7445 3.1971-2.3249h-3.9507z" style="fill:#050505;paint-order:fill markers stroke"/>
   <path transform="scale(.26458)" d="m1180.7 821.03c-5.102 0-8.9933 1.2048-11.672 3.6172-2.6786 2.3599-4.0176 5.769-4.0176 10.227v5.3496h9.9493v-5.9004c0-3.6185 1.8179-5.4277 5.4531-5.4277 1.7857 0 3.1247 0.47204 4.0176 1.416 0.9566 0.89151 1.4355 2.517 1.4355 4.877 0 2.6221-0.7663 5.1404-2.2969 7.5527-1.4668 2.4124-4.1448 5.3217-8.0351 8.7305-0.7268 0.62657-1.3981 1.2406-2.043 1.8477h12.545c3.3796-3.1718 5.8526-6.0462 7.3867-8.6113 1.9772-3.199 2.9649-6.4776 2.9649-9.834 0-4.4576-1.339-7.8666-4.0176-10.227-2.6786-2.4124-6.5679-3.6172-11.67-3.6172zm37.978 0c-5.1658 0-9.1209 1.2048-11.863 3.6172-2.7423 2.4124-4.1133 5.8214-4.1133 10.227v18.445h10.524v-18.996c0-3.6185 1.8179-5.4277 5.4531-5.4277s5.4512 1.8092 5.4512 5.4277v18.996h10.523v-18.445c0-4.4052-1.3709-7.8142-4.1133-10.227-2.7423-2.4124-6.6955-3.6172-11.861-3.6172zm38.551 0c-5.1021 0-8.9914 1.2048-11.67 3.6172-2.6786 2.3599-4.0176 5.769-4.0176 10.227v5.3496h9.9492v-5.9004c0-3.6185 1.816-5.4277 5.4512-5.4277 1.7857 0 3.1266 0.47204 4.0195 1.416 0.9566 0.89151 1.4336 2.517 1.4336 4.877 0 2.6221-0.7643 5.1404-2.2949 7.5527-1.4669 2.4124-4.1469 5.3217-8.0371 8.7305-0.7268 0.62657-1.3981 1.2406-2.043 1.8477h12.547c3.3795-3.1718 5.8525-6.0462 7.3867-8.6113 1.977-3.199 2.9648-6.4776 2.9648-9.834 0-4.4576-1.339-7.8666-4.0175-10.227-2.6786-2.4124-6.5699-3.6172-11.672-3.6172zm38.266 0c-5.102 0-8.9913 1.2048-11.67 3.6172-2.6786 2.3599-4.0195 5.769-4.0195 10.227v5.3496h9.9492v-5.9004c0-3.6185 1.8179-5.4277 5.4531-5.4277 1.7857 0 3.1247 0.47204 4.0176 1.416 0.9566 0.89151 1.4355 2.517 1.4355 4.877 0 2.6221-0.7643 5.1404-2.2949 7.5527-1.4668 2.4124-4.1468 5.3217-8.0371 8.7305-0.7268 0.62657-1.3981 1.2406-2.043 1.8477h12.547c3.3791-3.1718 5.8505-6.0462 7.3848-8.6113 1.977-3.199 2.9668-6.4776 2.9668-9.834 0-4.4576-1.3391-7.8666-4.0176-10.227-2.6786-2.4124-6.5698-3.6172-11.672-3.6172z" style="fill:url(#linearGradient1950);stroke-width:.90362"/>
   <g transform="translate(-13.455 -33.615)">
    <path d="m321.54 251.09 19.579-60.325 19.579 60.325-51.329-37.306h63.5" style="fill:#050505"/>
    <g transform="matrix(.84647 0 0 .84647 52.376 34.412)">
     <path d="m321.54 251.09 19.579-60.325 19.579 60.325-51.329-37.306h63.5" style="fill:url(#linearGradient1952);stroke-width:.26458"/>
     <path d="m341.12 190.76-7.5251 23.019 7.523 10.355-31.727-10.355 19.548 14.296 12.179-3.9393-19.614 27.004 19.616-14.202-3e-3 -12.801v-1e-3 0.00153l-3e-3 -5.3e-4 19.619 27.001-7.443-23.046-12.174-3.9548 31.727-10.358-24.218-0.01-7.5096 10.367v-2e-3z" style="fill:#7e0000"/>
    </g>
   </g>
   <g transform="translate(222.67 4.3718)">
    <g transform="matrix(1.2466 0 0 .80219 -.05107 -67.147)" style="fill:#610000;paint-order:stroke markers fill" aria-label="GRIFTATHON">
     <path d="m26.319 336.04c-1.9291 0-3.4001-0.54257-4.4129-1.6277-1.0128-1.1093-1.5192-2.6888-1.5192-4.7385v-13.311c0-1.664 0.75162-3.876 1.4191-4.9043 0.15471-0.23834-0.0905 0.4062 0.10007 0.20201 1.0128-1.1093 2.4838-1.6639 4.4129-1.6639s3.4001 0.55463 4.4129 1.6639c1.0128 1.0852 1.5192 2.6526 1.5192 4.7023l0.66083 0.88132-0.66083 1.289h-3.7618v-2.4235c0-1.6639-0.68726-2.4958-2.0618-2.4958s-2.0618 0.83194-2.0618 2.4958v13.854c0 1.6398 0.68726 2.4597 2.0618 2.4597s2.0618-0.81989 2.0618-2.4597v-4.9555h-1.9894v-3.6172l0.66083-1.289 5.0904 1.289v8.2833c0 1.4177-0.09667 2.3517-0.09667 2.3517s-0.76422 1.4817-0.83779 1.6032c-0.17135 0.28305-0.36626 0.54422-0.58474 0.78351-1.0128 1.0852-2.4838 1.6277-4.4129 1.6277z" style="fill:#610000"/>
     <path d="m34.353 310.36 0.66083-1.289 5.2351 1.289c2.0245 0.49846 3.5448 0.48229 4.4853 1.4469 0.94046 0.94046 1.4107 2.3994 1.4107 4.3768v1.5554c0 2.6285-0.86812 4.2924-2.6043 4.9917v0.0723c0.96457 0.28937 1.6398 0.88017 2.0256 1.7724 0.40994 0.89223 0.61492 2.0859 0.61492 3.581v4.4491c0 0.72343 0.02411 1.3142 0.07234 1.7724l1.0225 0.0132-0.66083 1.289h-4.0512c-0.14469-0.40994-0.24114-0.79577-0.28937-1.1575-0.04823-0.36172-0.07234-1.0128-0.07234-1.9533v-4.63c0-1.1575-0.19292-1.9653-0.57874-2.4235-0.36172-0.45817-1.0007-0.68726-1.9171-0.68726h-1.3745l0.66083 9.5625-0.66083 1.289h-3.9789zm5.4257 10.851c0.79577 0 1.3866-0.20497 1.7724-0.61491 0.40994-0.40995 0.61492-1.0972 0.61492-2.0618v-1.9533c0-0.91635-0.1688-1.5795-0.5064-1.9894-0.31349-0.40995-0.81989-0.61492-1.5192-0.61492h-1.8086v7.2343z" style="fill:#610000"/>
     <path d="m48.464 310.36 0.66083-1.289 3.318 1.289 0.66083 24.031-0.66083 1.289h-3.9789z" style="fill:#610000"/>
     <path d="m54.942 310.36 0.66083-1.289 9.8651 1.289 0.66083 2.3282-0.66083 1.289h-6.547v7.0534h5.1364l0.66083 2.3282-0.66083 1.289h-5.1364l0.66083 9.7433-0.66083 1.289h-3.9789z" style="fill:#610000"/>
     <path d="m70.029 313.98h-4.1597v-3.6172l0.66083-1.289 11.637 1.289 0.66083 2.3282-0.66083 1.289h-4.1597l0.66083 20.414-0.66083 1.289h-3.9789z" style="fill:#610000"/>
     <path d="m81.029 310.36 0.66083-1.289 4.7287 1.289 4.7844 24.031-0.66083 1.289h-3.9789l-0.72343-5.0278v0.0723h-4.5214l-0.0626 3.6666-0.66083 1.2889h-3.6895zm4.3406 16.928-1.7724-12.515h-0.07234l-1.7362 12.515z" style="fill:#610000"/>
     <path d="m93.44 313.98h-4.1597v-3.6172l0.66083-1.289 11.637 1.289 0.66083 2.3282-0.66083 1.289h-4.1597l0.66083 20.414-0.66083 1.289h-3.9789z" style="fill:#610000"/>
     <path d="m103.03 310.36 0.66083-1.289 3.318 1.289v10.309h4.2682v-10.309l0.66083-1.289 3.318 1.289 0.66083 24.031-0.66083 1.289h-3.9789v-11.394h-4.2682l0.66083 10.105-0.66083 1.289h-3.9789z" style="fill:#610000"/>
     <path d="m124.67 336.04c-1.9533 0-3.4484-0.55463-4.4853-1.6639-1.0369-1.1093-1.5554-2.6767-1.5554-4.7023v-13.311c0-1.4758 0.81923-3.7432 1.3696-4.7326 0.20507-0.36863-0.0957 0.33144 0.18576 0.0303 1.0369-1.1093 2.532-1.6639 4.4853-1.6639s3.4484 0.55463 4.4853 1.6639c1.0369 1.1093 1.5554 2.6767 1.5554 4.7023v13.311c0 1.2544 0.12946 1.6918-0.26821 2.5948-0.24447 0.55513-0.8924 1.6852-1.2872 2.1075-1.0369 1.1092-2.532 1.6639-4.4853 1.6639zm0-3.6172c1.3745 0 2.0618-0.83194 2.0618-2.4958v-13.818c0-1.6639-0.68726-2.4958-2.0618-2.4958-1.3745 0-2.0618 0.83194-2.0618 2.4958v13.818c0 1.6639 0.68726 2.4958 2.0618 2.4958z" style="fill:#610000"/>
     <path d="m134.09 310.36 0.66083-1.289 4.3308 1.289 3.8704 15.156h0.0723v-15.156l0.66083-1.289 2.884 1.289 0.66083 24.031-0.66083 1.289h-4.0874l-4.7746-18.484h-0.0723l0.66083 17.195-0.66083 1.289h-3.5448z" style="fill:#610000"/>
    </g>
    <g transform="matrix(1.2466 0 0 .80219 -.05107 -67.147)" style="fill:#ffffff;paint-order:stroke markers fill" aria-label="GRIFTATHON">
     <path d="m26.98 334.75q-2.8937 0-4.4129-1.6277-1.5192-1.6639-1.5192-4.7385v-13.311q0-3.0746 1.5192-4.7023 1.5192-1.6639 4.4129-1.6639t4.4129 1.6639q1.5192 1.6277 1.5192 4.7023v2.1703h-3.7618v-2.4235q0-2.4958-2.0618-2.4958-2.0618 0-2.0618 2.4958v13.854q0 2.4597 2.0618 2.4597 2.0618 0 2.0618-2.4597v-4.9555h-1.9894v-3.6172h5.7513v8.2833q0 3.0746-1.5192 4.7385-1.5192 1.6277-4.4129 1.6277z" style="fill:#ffffff"/>
     <path d="m35.014 309.07h5.896q3.0746 0 4.4853 1.4469 1.4107 1.4107 1.4107 4.3768v1.5554q0 3.9427-2.6043 4.9917v0.0723q1.4469 0.43406 2.0256 1.7724 0.61492 1.3384 0.61492 3.581v4.4491q0 1.0851 0.07234 1.7724 0.07234 0.65109 0.36172 1.3022h-4.0512q-0.21703-0.61491-0.28937-1.1575-0.07234-0.54258-0.07234-1.9533v-4.63q0-1.7362-0.57874-2.4235-0.54257-0.68726-1.9171-0.68726h-1.3745v10.851h-3.9789zm5.4257 10.851q1.1937 0 1.7724-0.61491 0.61492-0.61492 0.61492-2.0618v-1.9533q0-1.3745-0.5064-1.9894-0.47023-0.61492-1.5192-0.61492h-1.8086v7.2343z" style="fill:#ffffff"/>
     <path d="m49.124 309.07h3.9789v25.32h-3.9789z" style="fill:#ffffff"/>
     <path d="m55.603 309.07h10.526v3.6172h-6.547v7.0534h5.1364v3.6172h-5.1364v11.032h-3.9789z" style="fill:#ffffff"/>
     <path d="m70.69 312.69h-4.1597v-3.6172h12.298v3.6172h-4.1597v21.703h-3.9789z" style="fill:#ffffff"/>
     <path d="m81.69 309.07h5.3896l4.1236 25.32h-3.9789l-0.72343-5.0278v0.0724h-4.5214l-0.72343 4.9555h-3.6895zm4.3406 16.928-1.7724-12.515h-0.07234l-1.7362 12.515z" style="fill:#ffffff"/>
     <path d="m94.101 312.69h-4.1597v-3.6172h12.298v3.6172h-4.1597v21.703h-3.9789z" style="fill:#ffffff"/>
     <path d="m103.69 309.07h3.9789v10.309h4.2682v-10.309h3.9789v25.32h-3.9789v-11.394h-4.2682v11.394h-3.9789z" style="fill:#ffffff"/>
     <path d="m125.33 334.75q-2.9299 0-4.4853-1.6639-1.5554-1.6639-1.5554-4.7023v-13.311q0-3.0384 1.5554-4.7023 1.5554-1.6639 4.4853-1.6639t4.4853 1.6639q1.5554 1.6639 1.5554 4.7023v13.311q0 3.0384-1.5554 4.7023-1.5554 1.6639-4.4853 1.6639zm0-3.6172q2.0618 0 2.0618-2.4958v-13.818q0-2.4958-2.0618-2.4958-2.0618 0-2.0618 2.4958v13.818q0 2.4958 2.0618 2.4958z" style="fill:#ffffff"/>
     <path d="m134.75 309.07h4.9917l3.8704 15.156h0.0723v-15.156h3.5448v25.32h-4.0874l-4.7746-18.484h-0.0723v18.484h-3.5448z" style="fill:#ffffff"/>
    </g>
   </g>
   <path transform="scale(.26458)" d="m1175.3 851.63c-3.8523 3.3449-6.537 6.4128-8.043 9.1992-1.5306 2.7794-2.2969 6.1371-2.2969 10.07v5.9785h30.422v-7.8672h-19.994v-1.1797c0-1.9403 0.5408-3.7496 1.625-5.4277 1.0842-1.7306 3.1894-3.9605 6.3144-6.6875 1.6383-1.419 3.0949-2.7779 4.3965-4.0859zm27.352 0v12.189c0 4.4052 1.371 7.8142 4.1133 10.227 2.7424 2.4124 6.6975 3.6172 11.863 3.6172s9.119-1.2048 11.861-3.6172c2.7424-2.4124 4.1133-5.8214 4.1133-10.227v-12.189h-10.523v12.74c0 3.6186-1.816 5.4277-5.4512 5.4277s-5.4531-1.8092-5.4531-5.4277v-12.74zm49.178 0c-3.8523 3.3449-6.537 6.4128-8.043 9.1992-1.5306 2.7794-2.2949 6.1371-2.2949 10.07v5.9785h30.42v-7.8672h-19.994v-1.1797c0-1.9403 0.5427-3.7496 1.6269-5.4277 1.0842-1.7306 3.1894-3.9605 6.3145-6.6875 1.6382-1.419 3.0948-2.7779 4.3965-4.0859zm38.266 0c-3.8523 3.3449-6.5368 6.4128-8.043 9.1992-1.5306 2.7794-2.2968 6.1371-2.2968 10.07v5.9785h30.422v-7.8672h-19.994v-1.1797c0-1.9403 0.5427-3.7496 1.6269-5.4277 1.0842-1.7306 3.1895-3.9605 6.3145-6.6875 1.6383-1.419 3.0951-2.7779 4.3965-4.0859z" style="fill:#7e0000;stroke-width:.90362"/>
  </g>
 </g>
</svg>
