<?xml version="1.0" encoding="UTF-8" standalone="no"?>
<svg
   height="48"
   width="48"
   version="1.1"
   id="svg4"
   sodipodi:docname="group.svg"
   inkscape:version="1.2.1 (9c6d41e410, 2022-07-14)"
   xmlns:inkscape="http://www.inkscape.org/namespaces/inkscape"
   xmlns:sodipodi="http://sodipodi.sourceforge.net/DTD/sodipodi-0.dtd"
   xmlns="http://www.w3.org/2000/svg"
   xmlns:svg="http://www.w3.org/2000/svg"
   xmlns:rdf="http://www.w3.org/1999/02/22-rdf-syntax-ns#"
   xmlns:cc="http://creativecommons.org/ns#"
   xmlns:dc="http://purl.org/dc/elements/1.1/">
  <metadata
     id="metadata10">
    <rdf:RDF>
      <cc:Work
         rdf:about="">
        <dc:format>image/svg+xml</dc:format>
        <dc:type
           rdf:resource="http://purl.org/dc/dcmitype/StillImage" />
      </cc:Work>
    </rdf:RDF>
  </metadata>
  <defs
     id="defs8" />
  <sodipodi:namedview
     pagecolor="#ffffff"
     bordercolor="#666666"
     borderopacity="1"
     objecttolerance="10"
     gridtolerance="10"
     guidetolerance="10"
     inkscape:pageopacity="0"
     inkscape:pageshadow="2"
     inkscape:window-width="3840"
     inkscape:window-height="2081"
     id="namedview6"
     showgrid="false"
     inkscape:zoom="21"
     inkscape:cx="24"
     inkscape:cy="24.071429"
     inkscape:window-x="-9"
     inkscape:window-y="-9"
     inkscape:window-maximized="1"
     inkscape:current-layer="svg4"
     inkscape:showpageshadow="2"
     inkscape:pagecheckerboard="0"
     inkscape:deskcolor="#d1d1d1" />
  <path
     d="M0 36v-2.65q0-1.95 2.1-3.15T7.5 29q.65 0 1.2.025.55.025 1.1.125-.4.85-.6 1.725-.2.875-.2 1.875V36Zm12 0v-3.25q0-3.25 3.325-5.25t8.675-2q5.4 0 8.7 2 3.3 2 3.3 5.25V36Zm27 0v-3.25q0-1-.175-1.875t-.575-1.725q.55-.1 1.1-.125Q39.9 29 40.5 29q3.4 0 5.45 1.2Q48 31.4 48 33.35V36Zm-15-7.5q-4 0-6.5 1.2T15 32.75V33h18v-.3q0-1.8-2.475-3T24 28.5Zm-16.5-1q-1.45 0-2.475-1.025Q4 25.45 4 24q0-1.45 1.025-2.475Q6.05 20.5 7.5 20.5q1.45 0 2.475 1.025Q11 22.55 11 24q0 1.45-1.025 2.475Q8.95 27.5 7.5 27.5Zm33 0q-1.45 0-2.475-1.025Q37 25.45 37 24q0-1.45 1.025-2.475Q39.05 20.5 40.5 20.5q1.45 0 2.475 1.025Q44 22.55 44 24q0 1.45-1.025 2.475Q41.95 27.5 40.5 27.5ZM24 24q-2.5 0-4.25-1.75T18 18q0-2.55 1.75-4.275Q21.5 12 24 12q2.55 0 4.275 1.725Q30 15.45 30 18q0 2.5-1.725 4.25T24 24Zm0-9q-1.25 0-2.125.85T21 18q0 1.25.875 2.125T24 21q1.3 0 2.15-.875Q27 19.25 27 18q0-1.3-.85-2.15Q25.3 15 24 15Zm0 18Zm0-15Z"
     id="path2"
     style="fill:#f2f0f4;fill-opacity:1" />
</svg>
