<?xml version="1.0" encoding="UTF-8" standalone="no"?>
<svg
   height="48"
   width="48"
   version="1.1"
   id="svg4"
   sodipodi:docname="medal.svg"
   inkscape:version="1.2.1 (9c6d41e410, 2022-07-14)"
   xmlns:inkscape="http://www.inkscape.org/namespaces/inkscape"
   xmlns:sodipodi="http://sodipodi.sourceforge.net/DTD/sodipodi-0.dtd"
   xmlns="http://www.w3.org/2000/svg"
   xmlns:svg="http://www.w3.org/2000/svg"
   xmlns:rdf="http://www.w3.org/1999/02/22-rdf-syntax-ns#"
   xmlns:cc="http://creativecommons.org/ns#"
   xmlns:dc="http://purl.org/dc/elements/1.1/">
  <metadata
     id="metadata10">
    <rdf:RDF>
      <cc:Work
         rdf:about="">
        <dc:format>image/svg+xml</dc:format>
        <dc:type
           rdf:resource="http://purl.org/dc/dcmitype/StillImage" />
      </cc:Work>
    </rdf:RDF>
  </metadata>
  <defs
     id="defs8" />
  <sodipodi:namedview
     pagecolor="#ffffff"
     bordercolor="#666666"
     borderopacity="1"
     objecttolerance="10"
     gridtolerance="10"
     guidetolerance="10"
     inkscape:pageopacity="0"
     inkscape:pageshadow="2"
     inkscape:window-width="3840"
     inkscape:window-height="2081"
     id="namedview6"
     showgrid="false"
     inkscape:zoom="21"
     inkscape:cx="24"
     inkscape:cy="24.071429"
     inkscape:window-x="-9"
     inkscape:window-y="-9"
     inkscape:window-maximized="1"
     inkscape:current-layer="svg4"
     inkscape:showpageshadow="2"
     inkscape:pagecheckerboard="0"
     inkscape:deskcolor="#d1d1d1" />
  <path
     d="M14 4h20v16.65q0 1.15-.575 2.1-.575.95-1.575 1.55l-7.05 4.1 1.3 4.85h6.7l-5.45 4.05 2.1 6.7L24 39.95 18.5 44l2.1-6.7-5.45-4.05h6.75l1.25-4.85-7-4.1q-1-.6-1.575-1.55Q14 21.8 14 20.65Zm3 3v13.65q0 .35.225.65.225.3.675.55l4.8 2.65V7Zm14 0h-5.3v17.5l4.4-2.65q.45-.25.675-.55.225-.3.225-.65Zm-6.8 9.15Zm-1.5-.4Zm3 0Z"
     id="path2"
     style="fill:#f2f0f4;fill-opacity:1" />
</svg>
