<?xml version="1.0" encoding="UTF-8" standalone="no"?>
<svg
   width="772.76001"
   height="343.17001"
   version="1.1"
   viewBox="0 0 204.46 90.797"
   id="svg397"
   sodipodi:docname="MonoLogoWhite.svg"
   inkscape:version="1.2.1 (9c6d41e410, 2022-07-14)"
   xmlns:inkscape="http://www.inkscape.org/namespaces/inkscape"
   xmlns:sodipodi="http://sodipodi.sourceforge.net/DTD/sodipodi-0.dtd"
   xmlns:xlink="http://www.w3.org/1999/xlink"
   xmlns="http://www.w3.org/2000/svg"
   xmlns:svg="http://www.w3.org/2000/svg"
   xmlns:rdf="http://www.w3.org/1999/02/22-rdf-syntax-ns#"
   xmlns:cc="http://creativecommons.org/ns#"
   xmlns:dc="http://purl.org/dc/elements/1.1/">
  <sodipodi:namedview
     id="namedview12"
     pagecolor="#ffffff"
     bordercolor="#000000"
     borderopacity="0.25"
     inkscape:showpageshadow="2"
     inkscape:pageopacity="0.0"
     inkscape:pagecheckerboard="0"
     inkscape:deskcolor="#d1d1d1"
     showgrid="false"
     inkscape:zoom="1.6952223"
     inkscape:cx="386.38"
     inkscape:cy="171.95385"
     inkscape:window-width="3840"
     inkscape:window-height="2081"
     inkscape:window-x="-9"
     inkscape:window-y="-9"
     inkscape:window-maximized="1"
     inkscape:current-layer="svg397" />
  <defs
     id="defs307">
    <linearGradient
       id="linearGradient1946"
       x1="354.60001"
       x2="338.16"
       y1="199.07001"
       y2="162.17"
       gradientUnits="userSpaceOnUse"
       xlink:href="#linearGradient1800" />
    <linearGradient
       id="linearGradient1800">
      <stop
         style="stop-color:#b50000"
         offset="0"
         id="stop300" />
      <stop
         style="stop-color:#ff7878"
         offset="1"
         id="stop302" />
    </linearGradient>
    <linearGradient
       id="linearGradient1950"
       x1="1239.6"
       x2="1239.3"
       y1="857.48999"
       y2="806.31"
       gradientUnits="userSpaceOnUse"
       xlink:href="#linearGradient1800" />
    <linearGradient
       id="linearGradient1952"
       x1="323"
       x2="369.42999"
       y1="196.25"
       y2="251.22"
       gradientUnits="userSpaceOnUse"
       xlink:href="#linearGradient1800" />
  </defs>
  <metadata
     id="metadata309">
    <rdf:RDF>
      <cc:Work
         rdf:about="">
        <dc:format>image/svg+xml</dc:format>
        <dc:type
           rdf:resource="http://purl.org/dc/dcmitype/StillImage" />
      </cc:Work>
    </rdf:RDF>
  </metadata>
  <path
     id="path1676"
     style="fill:#f2f0f4;fill-opacity:1;stroke:none;stroke-width:0.264584px;stroke-linecap:butt;stroke-linejoin:miter;stroke-opacity:1"
     d="M 102.22974,2.645692 93.159542,30.560865 H 3.295441 L 14.769184,67.87187 h 7.089001 v 20.279438 h 80.371555 80.37207 V 67.87187 h 7.08899 l 11.47376,-37.311005 -89.83106,0.103354 z m 0,7.683273 7.35151,23.018817 h 24.27921 l -7.85484,5.70923 v -0.641307 h -15.8611 v 3.001892 h 5.36455 v 5.268428 12.743447 h 5.13148 l -0.85214,1.070221 h -1.39476 l 3.29593,10.154445 -13.97128,-10.154445 h -1.93011 l -0.37414,-1.674838 -3.30368,-2.400895 -2.976061,2.163181 0.499191,-2.200386 0.242881,-1.069706 h 5.831189 v -0.05995 l 0.93328,4.17237 h 5.13149 L 106.4543,38.415702 h -6.95102 l -5.318555,21.013767 h 4.758383 l 5.3e-4,-0.0026 v 0.0026 l -0.852672,1.069703 H 96.503461 L 82.531151,70.654138 85.82708,60.49969 h -1.362704 v -6.398596 l -3.58326,11.028818 H 17.890453 l -10.34668,-31.844659 57.762528,0.06253 6.83268,5.067923 h -6.280779 v 21.013767 h 5.131485 v -8.085836 -1.070222 h 6.62443 v -3.001893 h -6.62443 v -4.784218 -1.069706 h 5.196085 3.24787 v -1.475366 -1.526526 h -2.100646 l -6.97272,-5.067923 h 24.2792 z m 94.44773,22.956291 -10.34668,31.844656 h -62.99065 l -2.69959,-8.309076 v -9.918287 l 6.38361,-4.735123 v -2.682015 l 0.85214,-1.069706 v 21.013767 h 5.13201 v -8.386078 -1.069706 h 5.50458 v 9.455784 h 5.13149 V 38.415705 h -5.13149 v 8.555576 h -5.50458 v -8.555576 h -0.92605 l 6.83268,-5.067923 z M 28.942525,38.115463 c -2.487777,6.6e-5 -4.384492,0.460773 -5.690626,1.381317 -0.393701,0.271448 -0.727452,0.579863 -1.002523,0.923978 -0.001,0.0013 -0.002,0.0028 -0.003,0.0041 -0.0761,0.09541 -0.14746,0.193569 -0.214461,0.294556 -0.007,0.01117 -0.0142,0.02289 -0.0212,0.03411 -0.0564,0.08682 -0.10946,0.175761 -0.15916,0.26665 -0.0112,0.0204 -0.0223,0.04089 -0.0331,0.06149 -0.108371,0.206197 -0.200121,0.422813 -0.274921,0.649574 -0.008,0.02498 -0.0158,0.05024 -0.0238,0.07545 -0.031,0.09977 -0.0591,0.201213 -0.0837,0.304891 -0.003,0.01561 -0.007,0.03082 -0.0114,0.04651 -0.0274,0.120277 -0.0504,0.242977 -0.0692,0.368454 -0.003,0.02127 -0.006,0.04317 -0.009,0.0646 -0.0141,0.102772 -0.0256,0.207461 -0.0336,0.313677 -0.003,0.0347 -0.006,0.06933 -0.008,0.104387 -0.008,0.127665 -0.0134,0.257101 -0.0134,0.389642 V 54.44629 c 0,1.701119 0.653362,3.011975 1.959576,3.932588 1.306234,0.900588 3.203109,1.350826 5.691146,1.350826 2.488028,0 4.385433,-0.450238 5.691657,-1.350826 0.0894,-0.06302 0.17528,-0.128052 0.258381,-0.194822 0.0223,-0.01789 0.0432,-0.03663 0.0651,-0.05478 0.068,-0.05657 0.13473,-0.113975 0.19843,-0.173116 0.01,-0.0092 0.0194,-0.0186 0.0295,-0.02791 0.0711,-0.06716 0.139971,-0.135829 0.205671,-0.20619 0.007,-0.0072 0.0131,-0.0145 0.0202,-0.0217 0.0715,-0.07754 0.14058,-0.156372 0.20568,-0.237713 v -5.29e-4 c 0.649622,-0.811509 0.976163,-1.816119 0.976163,-3.015847 v -6.874533 h -7.417131 v 3.001892 h 2.565738 v 4.112939 c 0,0.0936 -0.005,0.183111 -0.0134,0.27027 -0.002,0.02601 -0.007,0.05053 -0.0103,0.07596 -0.008,0.06251 -0.0175,0.123883 -0.03,0.182934 -0.005,0.02405 -0.0111,0.04733 -0.0171,0.0708 -0.0143,0.05752 -0.0308,0.113363 -0.0496,0.167434 -0.007,0.02138 -0.0153,0.04271 -0.0233,0.06356 -0.0225,0.0576 -0.0482,0.112928 -0.076,0.1664 -0.007,0.01336 -0.0137,0.02721 -0.0207,0.04031 -0.154591,0.277755 -0.384881,0.497119 -0.689882,0.659394 -0.428671,0.228067 -1.003353,0.344166 -1.729095,0.344166 -1.772725,0 -2.659278,-0.680331 -2.659278,-2.041227 V 43.189062 c 0,-0.239523 0.0283,-0.45675 0.0816,-0.654743 2.6e-4,-7.93e-4 2.6e-4,-0.0013 5.3e-4,-0.0021 0.0131,-0.04826 0.0288,-0.09477 0.045,-0.140561 0.005,-0.01524 0.0105,-0.03052 0.0165,-0.04547 0.0162,-0.04206 0.0338,-0.08309 0.0527,-0.122989 0.008,-0.01643 0.0163,-0.03249 0.0243,-0.04858 0.0203,-0.03929 0.0411,-0.07814 0.0641,-0.115237 0.007,-0.01066 0.0142,-0.02053 0.0212,-0.03101 0.0797,-0.121735 0.174741,-0.231373 0.285771,-0.328663 0.0136,-0.01199 0.0267,-0.02455 0.0408,-0.03617 0.0303,-0.02487 0.0626,-0.04813 0.0951,-0.07131 0.0211,-0.01503 0.0421,-0.03013 0.0641,-0.04444 0.032,-0.02085 0.0647,-0.04115 0.0987,-0.06046 0.0266,-0.01516 0.0544,-0.0292 0.0822,-0.04341 0.0306,-0.01566 0.0609,-0.03146 0.093,-0.04599 0.0436,-0.01979 0.0896,-0.03759 0.135911,-0.0553 0.0216,-0.0082 0.0419,-0.01752 0.0641,-0.02532 5.3e-4,-2.65e-4 7.9e-4,-2.65e-4 0.001,-5.3e-4 0.0681,-0.02389 0.13982,-0.0455 0.21342,-0.06511 0.0266,-0.0071 0.0549,-0.01262 0.0822,-0.01913 0.0447,-0.01069 0.0898,-0.02077 0.13642,-0.02997 0.12824,-0.02516 0.263931,-0.04455 0.406701,-0.05839 0.0288,-0.0028 0.0585,-0.0048 0.0878,-0.0072 0.148681,-0.01183 0.302311,-0.01963 0.466122,-0.01963 1.772725,3e-6 2.659278,0.690806 2.659278,2.071715 v 2.011251 h 4.851393 v -1.801444 c 0,-1.701125 -0.652842,-3.001508 -1.959055,-3.9021 -1.306134,-0.920544 -3.203379,-1.38125 -5.691147,-1.381316 z m 126.846885,0 c -2.51888,6.6e-5 -4.44692,0.460773 -5.78415,1.381317 -0.52962,0.364589 -0.95292,0.789537 -1.2728,1.273311 -0.0579,0.08763 -0.11169,0.177705 -0.16278,0.269235 -0.005,0.0095 -0.011,0.01892 -0.016,0.02842 -0.15489,0.28257 -0.27794,0.583315 -0.36793,0.90279 -0.004,0.01617 -0.008,0.03282 -0.0124,0.04909 -0.023,0.08523 -0.0436,0.171578 -0.062,0.259417 -0.006,0.02972 -0.0116,0.05991 -0.0176,0.08992 -0.015,0.07867 -0.0285,0.158542 -0.0398,0.239261 -0.004,0.03484 -0.009,0.06968 -0.0134,0.104905 -0.009,0.07581 -0.0162,0.152898 -0.0222,0.230477 -0.003,0.03672 -0.007,0.07295 -0.009,0.110072 -0.006,0.113388 -0.0104,0.228101 -0.0104,0.3452 v 11.047418 c 0,1.681107 0.66874,2.982006 2.00609,3.902616 1.33731,0.920604 3.26552,1.380798 5.78467,1.380798 0.31489,0 0.62031,-0.0073 0.91675,-0.0217 2.07497,-0.100667 3.69775,-0.553566 4.86793,-1.359095 0.081,-0.05578 0.15954,-0.112997 0.23564,-0.171567 0.0447,-0.03454 0.0872,-0.07042 0.13023,-0.105937 0.0245,-0.02019 0.0499,-0.03996 0.0739,-0.06046 0.13732,-0.117915 0.26545,-0.240999 0.38499,-0.36897 0.7864,-0.841936 1.18133,-1.906578 1.18133,-3.195682 V 43.398887 c 0,-1.681109 -0.66881,-2.981489 -2.00609,-3.902099 -1.33723,-0.920544 -3.2653,-1.381251 -5.78416,-1.381317 z m -116.485215,0.300242 10e-4,21.013767 h 5.131485 v -7.935975 -1.069703 h 1.772506 c 1.181813,0 2.006235,0.190256 2.472727,0.570509 0.497601,0.380252 0.746212,1.050621 0.746212,2.011252 v 3.842152 c 0,0.780516 0.0313,1.320892 0.0935,1.621097 0.0622,0.300197 0.18649,0.620444 0.373101,0.960668 h 5.225025 c -0.24879,-0.360234 -0.404441,-0.72032 -0.466641,-1.080559 -0.0622,-0.380252 -0.0935,-0.870321 -0.0935,-1.470715 V 53.18539 c 0,-1.240817 -0.264021,-2.231431 -0.792713,-2.971922 -0.366871,-0.545925 -0.938353,-0.954967 -1.711015,-1.22887 -10e-4,-2.64e-4 -0.002,-7.93e-4 -0.003,-0.0011 -0.12896,-0.04566 -0.264201,-0.0868 -0.404121,-0.125058 -0.009,-0.0024 -0.0158,-0.0053 -0.0248,-0.0078 -0.001,-2.65e-4 -0.002,-2.65e-4 -0.003,-5.29e-4 -0.14941,-0.04011 -0.305141,-0.07612 -0.467671,-0.107487 v -0.05994 c 0.12676,-0.03286 0.24886,-0.06898 0.368451,-0.106972 0.0351,-0.01114 0.0689,-0.02307 0.10335,-0.03462 0.0841,-0.02826 0.166091,-0.05799 0.246501,-0.08888 0.0363,-0.014 0.0729,-0.02784 0.10852,-0.04237 0.0944,-0.03845 0.186321,-0.07869 0.275431,-0.120923 0.0143,-0.0068 0.0297,-0.01273 0.0439,-0.01963 0.004,-0.0019 0.007,-0.0043 0.0114,-0.0062 0.0934,-0.04564 0.18328,-0.09377 0.270781,-0.14366 0.0383,-0.02188 0.0749,-0.045 0.11214,-0.0677 0.0551,-0.03361 0.10912,-0.06794 0.16174,-0.103352 0.0377,-0.0254 0.0757,-0.05067 0.112141,-0.077 0.0572,-0.04133 0.11188,-0.08455 0.16588,-0.128157 0.0242,-0.01953 0.0498,-0.0379 0.0734,-0.05788 0.869843,-0.737719 1.305344,-1.785964 1.305344,-3.145553 v -1.290882 c 0,-1.641081 -0.606622,-2.851833 -1.819535,-3.632349 -1.212903,-0.800528 -3.141129,-1.200962 -5.784666,-1.200962 z m 18.198423,0 v 21.013767 h 5.131485 V 38.415705 Z m 22.448825,0 v 1.903248 1.098644 h 5.365066 v 2.800872 3.971346 3.288696 7.950961 h 5.131485 V 42.487303 41.417597 h 5.365065 v -3.001892 z m 87.982997,0 v 21.013767 h 4.57183 v -12.37861 -2.961069 h 0.093 l 6.15778,15.339679 h 5.27153 V 38.415705 h -4.57132 v 12.578598 h -0.0935 l -0.75913,-1.913067 -4.23231,-10.665531 z m -12.14503,2.701653 c 1.77272,0 2.65928,0.690805 2.65928,2.071714 v 11.467549 c 0,0.09505 -0.005,0.185901 -0.0134,0.274403 -0.003,0.0276 -0.008,0.05365 -0.0109,0.08062 -0.008,0.06122 -0.0169,0.121377 -0.0289,0.179316 -0.006,0.02686 -0.0116,0.05289 -0.0186,0.07906 -0.0143,0.05763 -0.0309,0.113739 -0.0496,0.16795 -0.007,0.02016 -0.0137,0.04025 -0.0217,0.05994 -0.0239,0.06236 -0.0511,0.122225 -0.0811,0.179835 -0.005,0.01 -0.01,0.02069 -0.015,0.03049 -0.37144,0.678989 -1.17694,1.01958 -2.42002,1.01958 -1.77273,0 -2.65927,-0.690286 -2.65927,-2.071198 V 43.189072 c 0,-0.298763 0.0441,-0.56322 0.12713,-0.797372 0.005,-0.01524 0.0105,-0.03053 0.0165,-0.04547 0.0162,-0.04206 0.0338,-0.08309 0.0527,-0.122989 0.008,-0.01643 0.0163,-0.03249 0.0243,-0.04858 0.0203,-0.0393 0.0411,-0.07814 0.0641,-0.115238 0.007,-0.01066 0.0142,-0.02053 0.0212,-0.03101 0.0797,-0.121734 0.17475,-0.231372 0.28577,-0.328663 0.0136,-0.01199 0.0267,-0.02455 0.0408,-0.03617 0.0303,-0.02487 0.0626,-0.04813 0.0951,-0.07131 0.0211,-0.01503 0.0421,-0.03013 0.0641,-0.04444 0.032,-0.02085 0.0647,-0.04115 0.0987,-0.06046 0.0266,-0.01516 0.0544,-0.0292 0.0822,-0.04341 0.0306,-0.01566 0.0609,-0.03146 0.093,-0.04599 0.0436,-0.01979 0.0896,-0.0376 0.13591,-0.0553 0.0216,-0.0082 0.0419,-0.01751 0.0641,-0.02532 0.0691,-0.02426 0.1413,-0.04579 0.216,-0.06563 0.0248,-0.0066 0.0511,-0.01199 0.0765,-0.0181 0.046,-0.01101 0.0926,-0.02162 0.14056,-0.03101 0.12824,-0.02516 0.26393,-0.04455 0.4067,-0.05839 0.0288,-0.0028 0.0585,-0.0048 0.0879,-0.0072 0.14864,-0.01183 0.30229,-0.01963 0.46612,-0.01963 z M 44.43568,41.417597 h 2.332677 c 0.901923,0 1.554755,0.170339 1.959066,0.510565 0.435401,0.340221 0.653192,0.890564 0.653192,1.651069 v 1.621093 c 0,0.800529 -0.264521,1.370786 -0.793243,1.711012 -0.0479,0.03272 -0.10028,0.0624 -0.15296,0.09198 -0.495671,0.27797 -1.205053,0.41858 -2.132686,0.41858 H 44.43568 V 42.4873 Z m 76.20487,0 h 5.36507 l -0.85216,1.069706 h -3.86799 l -0.64492,0.468708 v -0.468708 z m -17.91833,0.660428 h 0.093 l 2.28618,10.386993 h -4.61886 l 1.74719,-8.103404 v -5.3e-4 z m -25.094153,0.409278 6.836299,5.070505 V 43.598865 L 82.934732,42.487303 H 79.099301 78.581499 Z M 24.450792,70.258817 H 79.214541 L 74.320767,85.319951 H 24.450792 Z m 100.555908,0 h 54.76375 v 15.061134 h -49.86997 z m -38.177107,0.150891 c 1.349914,0 2.378987,0.319291 3.087679,0.957572 0.708712,0.624392 1.063503,1.526375 1.063503,2.705778 0,0.888033 -0.26188,1.755005 -0.784962,2.601408 -0.506231,0.846402 -1.392174,1.817875 -2.657728,2.914038 -0.826822,0.721522 -1.383324,1.310994 -1.670184,1.768885 -0.286871,0.444012 -0.430472,0.922703 -0.430472,1.436095 v 0.31213 h 5.290136 v 2.081526 h -8.049144 v -1.581814 c 2e-5,-1.040653 0.202741,-1.928536 0.607712,-2.663928 0.405001,-0.749282 1.130433,-1.574954 2.176616,-2.476857 1.029313,-0.901903 1.737885,-1.672195 2.125977,-2.310467 0.405001,-0.638272 0.607721,-1.304044 0.607721,-1.997816 0,-0.624401 -0.12672,-1.054483 -0.379831,-1.290363 -0.236241,-0.249761 -0.590512,-0.374651 -1.062983,-0.374651 -0.961813,0 -1.442804,0.478681 -1.442804,1.436094 v 1.560624 h -2.632408 v -1.414904 c 2e-5,-1.179403 0.354301,-2.081386 1.062983,-2.705778 0.708722,-0.638281 1.738255,-0.957572 3.088189,-0.957572 z m 10.048519,0 c 1.366794,0 2.412747,0.319291 3.138318,0.957572 0.72559,0.638272 1.08831,1.540255 1.08831,2.705778 v 7.658992 c 0,1.165534 -0.36272,2.067516 -1.08831,2.705788 -0.725571,0.638272 -1.771524,0.957563 -3.138318,0.957563 -1.366784,0 -2.413247,-0.319291 -3.138839,-0.957563 C 93.013701,83.799566 92.65096,82.897584 92.65096,81.73205 v -7.658992 c 0,-1.165523 0.362741,-2.067506 1.088313,-2.705778 0.725592,-0.638281 1.772055,-0.957572 3.138839,-0.957572 z m 10.200438,0 c 1.34991,0 2.37896,0.319291 3.08767,0.957572 0.70868,0.624392 1.06299,1.526375 1.06299,2.705778 0,0.888033 -0.26137,1.755005 -0.78445,2.601408 -0.50622,0.846402 -1.39219,1.817875 -2.65773,2.914038 -0.82682,0.721522 -1.38381,1.310994 -1.6707,1.768885 -0.28684,0.444012 -0.42995,0.922703 -0.42995,1.436095 v 0.31213 h 5.28961 v 2.081526 h -8.04862 v -1.581814 c 0,-1.040653 0.20223,-1.928536 0.6072,-2.663928 0.40497,-0.749282 1.13095,-1.574954 2.17714,-2.476857 1.02931,-0.901903 1.73788,-1.672195 2.12596,-2.310467 0.40499,-0.638272 0.60721,-1.304044 0.60721,-1.997816 0,-0.624401 -0.12618,-1.054483 -0.3793,-1.290363 -0.23623,-0.249761 -0.59051,-0.374651 -1.063,-0.374651 -0.96182,0 -1.4428,0.478681 -1.4428,1.436094 v 1.560624 h -2.63241 v -1.414904 c 0,-1.179403 0.35426,-2.081386 1.06299,-2.705778 0.70868,-0.638281 1.73825,-0.957572 3.08819,-0.957572 z m 10.12396,0 c 1.3499,0 2.37947,0.319291 3.08819,0.957572 0.70871,0.624392 1.06299,1.526375 1.06299,2.705778 0,0.888033 -0.26134,1.755005 -0.78445,2.601408 -0.5062,0.846402 -1.39216,1.817875 -2.65773,2.914038 -0.82682,0.721522 -1.38387,1.310994 -1.6707,1.768885 -0.28689,0.444012 -0.43047,0.922703 -0.43047,1.436095 v 0.31213 h 5.29013 v 2.081526 h -8.04862 v -1.581814 c 0,-1.040653 0.20225,-1.928536 0.6072,-2.663928 0.40496,-0.749282 1.13041,-1.574954 2.17662,-2.476857 1.02931,-0.901903 1.73836,-1.672195 2.12648,-2.310467 0.40497,-0.638272 0.60721,-1.304044 0.60721,-1.997816 0,-0.624401 -0.1262,-1.054483 -0.37931,-1.290363 -0.23623,-0.249761 -0.59104,-0.374651 -1.06351,-0.374651 -0.96181,0 -1.44229,0.478681 -1.44229,1.436094 v 1.560624 h -2.6324 v -1.414904 c 0,-1.179403 0.35426,-2.081386 1.06298,-2.705778 0.70871,-0.638281 1.73777,-0.957572 3.08768,-0.957572 z m -20.324398,2.081536 c -0.961812,0 -1.442814,0.478681 -1.442814,1.436094 v 7.950443 c 0,0.957403 0.481002,1.436084 1.442814,1.436084 0.961823,0 1.442805,-0.478681 1.442805,-1.436084 v -7.950443 c 0,-0.957413 -0.480982,-1.436094 -1.442805,-1.436094 z m -64.576607,0.19895 -1.213363,3.744491 H 27.13746 l 3.196719,2.322857 -1.215433,3.746551 3.185339,-2.315107 3.182759,2.315107 -1.215943,-3.744481 3.197229,-2.324927 h -3.950681 z m 17.850642,0 -1.215954,3.744491 h -3.948611 l 3.195169,2.322857 -1.215953,3.746551 3.185349,-2.315107 3.184819,2.315107 -1.215423,-3.746551 3.194639,-2.322857 h -3.948601 z m 17.850122,0 -1.215434,3.744491 h -3.948611 l 3.194649,2.322857 -1.215944,3.746551 3.18534,-2.315107 3.185349,2.315107 -1.215954,-3.746551 3.19465,-2.322857 h -3.948092 z m 68.216711,0 -1.21596,3.744491 h -3.9486 l 3.19516,2.322857 -1.21595,3.746551 3.18535,-2.315107 3.18483,2.315107 -1.21544,-3.746551 3.19464,-2.322857 h -3.9486 z m 17.85012,0 -1.21543,3.744491 h -3.94861 l 3.19464,2.322857 -1.21594,3.746551 3.18534,-2.315107 3.18535,2.315107 -1.21595,-3.746551 3.19464,-2.322857 h -3.94809 z m 17.85064,0 -1.21595,3.744491 h -3.95067 l 3.19723,2.324927 -1.21595,3.744481 3.18276,-2.315107 3.18534,2.315107 -1.21595,-3.746551 3.19724,-2.322857 h -3.95069 z" />
</svg>
