<?xml version="1.0" encoding="UTF-8" standalone="no"?>
<!-- Created with Inkscape (http://www.inkscape.org/) -->

<svg
   width="141.81598mm"
   height="141.81598mm"
   viewBox="0 0 141.81598 141.81598"
   version="1.1"
   id="svg5"
   inkscape:version="1.2.1 (9c6d41e410, 2022-07-14)"
   sodipodi:docname="spinner.svg"
   xml:space="preserve"
   xmlns:inkscape="http://www.inkscape.org/namespaces/inkscape"
   xmlns:sodipodi="http://sodipodi.sourceforge.net/DTD/sodipodi-0.dtd"
   xmlns:xlink="http://www.w3.org/1999/xlink"
   xmlns="http://www.w3.org/2000/svg"
   xmlns:svg="http://www.w3.org/2000/svg"><sodipodi:namedview
     id="namedview7"
     pagecolor="#505050"
     bordercolor="#eeeeee"
     borderopacity="1"
     inkscape:showpageshadow="0"
     inkscape:pageopacity="0"
     inkscape:pagecheckerboard="0"
     inkscape:deskcolor="#505050"
     inkscape:document-units="mm"
     showgrid="false"
     showguides="false"
     inkscape:zoom="1"
     inkscape:cx="744"
     inkscape:cy="206.5"
     inkscape:window-width="3840"
     inkscape:window-height="2081"
     inkscape:window-x="-9"
     inkscape:window-y="-9"
     inkscape:window-maximized="1"
     inkscape:current-layer="layer1"><inkscape:grid
       type="xygrid"
       id="grid686"
       dotted="false"
       originx="-67.816531"
       originy="8.0002892" /></sodipodi:namedview><defs
     id="defs2"><linearGradient
       inkscape:collect="always"
       id="linearGradient8219"><stop
         style="stop-color:#6d0000;stop-opacity:1;"
         offset="0"
         id="stop8215" /><stop
         style="stop-color:#ff0b0b;stop-opacity:0.33333337;"
         offset="0.66560507"
         id="stop8217" /><stop
         style="stop-color:#b50000;stop-opacity:0;"
         offset="1"
         id="stop8223" /></linearGradient><linearGradient
       inkscape:collect="always"
       id="linearGradient8157"><stop
         style="stop-color:#ffffff;stop-opacity:0.57861638;"
         offset="0.16242038"
         id="stop8153" /><stop
         style="stop-color:#ff0000;stop-opacity:0;"
         offset="0.89490443"
         id="stop8155" /></linearGradient><linearGradient
       id="linearGradient1946"
       x1="354.60001"
       x2="338.16"
       y1="199.07001"
       y2="162.17"
       gradientUnits="userSpaceOnUse"
       xlink:href="#linearGradient1800" /><linearGradient
       id="linearGradient1800"><stop
         style="stop-color:#b50000"
         offset="0"
         id="stop7937" /><stop
         style="stop-color:#ff7878"
         offset="1"
         id="stop7939" /></linearGradient><linearGradient
       id="linearGradient1950"
       x1="1239.6"
       x2="1239.3"
       y1="857.48999"
       y2="806.31"
       gradientUnits="userSpaceOnUse"
       xlink:href="#linearGradient1800" /><linearGradient
       id="linearGradient1952"
       x1="323"
       x2="369.42999"
       y1="196.25"
       y2="251.22"
       gradientUnits="userSpaceOnUse"
       xlink:href="#linearGradient1800" /><radialGradient
       inkscape:collect="always"
       xlink:href="#linearGradient8157"
       id="radialGradient8159"
       cx="138.7245"
       cy="62.9077"
       fx="138.7245"
       fy="62.9077"
       r="70.90799"
       gradientUnits="userSpaceOnUse" /><radialGradient
       inkscape:collect="always"
       xlink:href="#linearGradient8219"
       id="radialGradient8221"
       cx="138.72452"
       cy="62.9077"
       fx="138.72452"
       fy="62.9077"
       r="29.73819"
       gradientTransform="matrix(1.4340923,0,0,1.4340923,-60.219243,-27.307747)"
       gradientUnits="userSpaceOnUse" /></defs><g
     inkscape:label="Layer 1"
     inkscape:groupmode="layer"
     id="layer1"
     transform="translate(-67.816527,8.0002888)"><circle
       style="fill:url(#radialGradient8221);fill-opacity:1;stroke-width:0.264583"
       id="path8213"
       cx="138.72452"
       cy="62.9077"
       r="42.647308" /><path
       id="path7673"
       style="fill:url(#radialGradient8159);fill-opacity:1;stroke-width:7.21479"
       d="M 138.72451,-8.0002888 V 62.907707 l 20.37621,-67.9065218 a 70.905037,70.905037 0 0 0 -20.37621,-3.001474 z m 0,70.9079958 51.60275,-48.629484 A 70.905037,70.905037 0 0 0 174.17851,1.5114172 Z m 0,0 69.00566,-16.30376 a 70.905037,70.905037 0 0 0 -7.60935,-19.15024 z m 0,0 67.89245,20.3621 a 70.905037,70.905037 0 0 0 3.01554,-20.3621 z m 0,0 48.61537,51.588663 A 70.905037,70.905037 0 0 0 200.1349,98.361687 Z m 0,0 16.31786,68.991543 a 70.905037,70.905037 0 0 0 19.13614,-7.58116 z m 0,0 -20.36208,67.892443 a 70.905037,70.905037 0 0 0 20.36208,3.01554 z m 0,0 -51.588653,48.615373 a 70.905037,70.905037 0 0 0 16.134663,12.79501 z m 0,0 -68.991549,16.31785 a 70.905037,70.905037 0 0 0 7.581175,19.13613 z m 0,0 -67.892408,-20.36208 a 70.905037,70.905037 0 0 0 -3.015575,20.36208 z m 0,0 L 90.109138,11.319046 A 70.905037,70.905037 0 0 0 77.314136,27.453707 Z m 0,0 -16.31785,-68.9915608 a 70.905037,70.905037 0 0 0 -19.13614,7.581167 z" /></g></svg>
